<?xml version="1.0" encoding="utf-8"?>
<!-- Generator: Adobe Illustrator 21.0.0, SVG Export Plug-In . SVG Version: 6.00 Build 0)  -->
<svg version="1.1" id="Capa_1" xmlns="http://www.w3.org/2000/svg" xmlns:xlink="http://www.w3.org/1999/xlink" x="0px" y="0px"
	 viewBox="0 0 58 58" style="enable-background:new 0 0 58 58;" xml:space="preserve">
<style type="text/css">
	.st0{fill:#EBBA16;}
	.st1{fill:#FFFFFF;}
</style>
<circle class="st0" cx="29" cy="29" r="29"/>
<g>
	<polygon class="st1" points="29,14 44,36 29.3,36 14,36 	"/>
	<path class="st1" d="M45,36c0,0.2,0,0.3-0.1,0.5C44.7,36.8,44.4,37,44,37l-30,0c-0.4,0-0.7-0.2-0.9-0.5c-0.2-0.3-0.1-0.7,0.1-1
		l15-22c0.2-0.3,0.5-0.4,0.8-0.4c0.3,0,0.6,0.2,0.8,0.4l15,22C44.9,35.6,45,35.8,45,36z M15.9,35l26.2,0L29,15.8L15.9,35z"/>
</g>
</svg>
