<?xml version="1.0" encoding="iso-8859-1"?>
<!-- Generator: Adobe Illustrator 19.0.0, SVG Export Plug-In . SVG Version: 6.00 Build 0)  -->
<svg version="1.1" id="Capa_1" xmlns="http://www.w3.org/2000/svg" xmlns:xlink="http://www.w3.org/1999/xlink" x="0px" y="0px"
	 viewBox="0 0 469.333 469.333" style="enable-background:new 0 0 469.333 469.333;" xml:space="preserve">
<g>
	<g>
		<g>
			<path d="M146.073,404.313c-17.646-8.823-33.51-20.219-47.167-33.885c-13.667-13.656-25.063-29.521-33.885-47.167
				c-2.635-5.281-9.052-7.406-14.312-4.771c-5.271,2.635-7.406,9.042-4.771,14.313c9.854,19.698,22.594,37.427,37.885,52.708
				c15.281,15.292,33.01,28.031,52.708,37.885c1.531,0.76,3.156,1.125,4.76,1.125c3.917,0,7.677-2.156,9.552-5.896
				C153.479,413.354,151.344,406.948,146.073,404.313z"/>
			<path d="M127,442.448c-21.781-10.885-41.385-24.969-58.271-41.844c-16.875-16.885-30.958-36.49-41.844-58.271
				c-2.646-5.26-9.063-7.406-14.313-4.771c-5.271,2.635-7.406,9.042-4.771,14.313c11.917,23.833,27.344,45.302,45.844,63.813
				c18.51,18.5,39.979,33.927,63.812,45.844c1.531,0.76,3.156,1.125,4.76,1.125c3.917,0,7.677-2.156,9.552-5.896
				C134.406,451.49,132.271,445.083,127,442.448z"/>
			<path d="M342.333,26.885c21.781,10.885,41.385,24.969,58.271,41.844c16.875,16.885,30.958,36.49,41.844,58.271
				c1.875,3.74,5.635,5.896,9.552,5.896c1.604,0,3.229-0.365,4.76-1.125c5.271-2.635,7.406-9.042,4.771-14.313
				c-11.917-23.833-27.344-45.302-45.844-63.812c-18.51-18.5-39.979-33.927-63.813-45.844c-5.271-2.615-11.677-0.5-14.313,4.771
				C334.927,17.844,337.063,24.25,342.333,26.885z"/>
			<path d="M323.26,65.021c17.646,8.823,33.51,20.219,47.167,33.885c13.667,13.656,25.063,29.521,33.885,47.167
				c1.875,3.74,5.635,5.896,9.552,5.896c1.604,0,3.229-0.365,4.76-1.125c5.271-2.635,7.406-9.042,4.771-14.313
				c-9.854-19.698-22.594-37.427-37.885-52.708c-15.281-15.292-33.01-28.031-52.708-37.885c-5.271-2.604-11.677-0.5-14.313,4.771
				C315.854,55.979,317.99,62.385,323.26,65.021z"/>
			<path d="M459.958,275.913L193.312,9.1c-12.042-12.102-33.167-12.154-45.271-0.031L9.375,147.828
				C3.333,153.873,0,161.92,0,170.468s3.333,16.594,9.375,22.64l266.646,266.813c6.031,6.067,14.073,9.413,22.646,9.413
				c8.542,0,16.583-3.336,22.625-9.381l138.667-138.759c6.042-6.046,9.375-14.093,9.375-22.64S466,281.959,459.958,275.913z
				 M380.875,359.542l-21.333,21.333C357.458,382.958,354.729,384,352,384c-2.729,0-5.458-1.042-7.542-3.125
				c-4.167-4.167-4.167-10.917,0-15.083l21.333-21.333c4.167-4.167,10.917-4.167,15.083,0
				C385.042,348.625,385.042,355.375,380.875,359.542z M272.005,395.578L47.083,170.667L170.667,47.094L395.583,272L272.005,395.578
				z"/>
			<path d="M131.125,109.792l-21.333,21.333c-4.167,4.167-4.167,10.917,0,15.083c2.083,2.083,4.813,3.125,7.542,3.125
				c2.729,0,5.458-1.042,7.542-3.125l21.333-21.333c4.167-4.167,4.167-10.917,0-15.083
				C142.042,105.625,135.292,105.625,131.125,109.792z"/>
			<circle cx="170.667" cy="74.667" r="10.667"/>
		</g>
	</g>
</g>
<g>
</g>
<g>
</g>
<g>
</g>
<g>
</g>
<g>
</g>
<g>
</g>
<g>
</g>
<g>
</g>
<g>
</g>
<g>
</g>
<g>
</g>
<g>
</g>
<g>
</g>
<g>
</g>
<g>
</g>
</svg>
