<?xml version="1.0" encoding="utf-8"?>
<!-- Svg Vector Icons : http://www.onlinewebfonts.com/icon -->
<!DOCTYPE svg PUBLIC "-//W3C//DTD SVG 1.1//EN" "http://www.w3.org/Graphics/SVG/1.1/DTD/svg11.dtd">
<svg version="1.1" xmlns="http://www.w3.org/2000/svg" xmlns:xlink="http://www.w3.org/1999/xlink" x="0px" y="0px" viewBox="0 0 1000 1000" enable-background="new 0 0 1000 1000" xml:space="preserve">
<metadata> Svg Vector Icons : http://www.onlinewebfonts.com/icon </metadata>
<g><g><g><path d="M500,10C229.4,10,10,229.4,10,500s219.4,490,490,490c270.6,0,490-219.4,490-490S770.6,10,500,10z M823.6,584.5c0,20.3-16.5,36.8-36.8,36.8h-4.1v104.1c0,20.3-16.5,36.8-36.8,36.8H247.8c-8.8,0-16.8-3.3-23.1-8.4c-0.5,0-0.9,0.3-1.4,0.3c-3.1,0-6.2-1.2-8.6-3.5c-87.4-86-87.4-99.5-87.4-104.6v-390c0-20.3,16.5-36.8,36.8-36.8h498.2c20.3,0,36.8,16.5,36.8,36.8v42.8h47c20.3,0,36.8,16.5,36.8,36.8v118.4h4.1c20.3,0,36.8,16.5,36.8,36.8V584.5z"/><path d="M786.8,478.4h-16.3h-83.7c-32.6,0-59.2,26.5-59.2,59.2c0,32.6,26.6,59.2,59.2,59.2h83.7h16.3c6.8,0,12.3-5.5,12.3-12.3v-93.9C799.1,483.9,793.6,478.4,786.8,478.4z M686.8,578.4c-22.5,0-40.8-18.3-40.8-40.8s18.3-40.8,40.8-40.8c22.5,0,40.8,18.3,40.8,40.8C727.6,560.1,709.3,578.4,686.8,578.4z"/><path d="M686.8,521.2c9,0,16.3,7.3,16.3,16.3c0,9-7.3,16.3-16.3,16.3s-16.3-7.3-16.3-16.3C670.5,528.5,677.8,521.2,686.8,521.2z"/><path d="M603.1,537.6c0-46.2,37.5-83.7,83.7-83.7h71.5V335.4c0-6.7-5.5-12.3-12.3-12.3H247.8c-6.8,0-12.3,5.5-12.3,12.3v389.9c0,6.8,5.5,12.3,12.3,12.3H746c6.8,0,12.3-5.5,12.3-12.3V621.3h-71.5C640.6,621.3,603.1,583.7,603.1,537.6z M717.4,349.7c0-6.8,5.5-12.3,12.3-12.3s12.3,5.5,12.3,12.3v71.5c0,6.8-5.5,12.3-12.3,12.3s-12.3-5.5-12.3-12.3V349.7z"/><path d="M674.6,298.7v-42.8c0-6.7-5.5-12.3-12.3-12.3H164.1c-6.8,0-12.3,5.5-12.3,12.3v388.6c4,8.8,30.6,38.4,59.2,67.6V335.4c0-20.3,16.5-36.8,36.8-36.8H674.6z"/></g></g><g></g><g></g><g></g><g></g><g></g><g></g><g></g><g></g><g></g><g></g><g></g><g></g><g></g><g></g><g></g></g>
</svg>