<?xml version="1.0" encoding="UTF-8"?><!DOCTYPE svg PUBLIC "-//W3C//DTD SVG 1.1//EN" "http://www.w3.org/Graphics/SVG/1.1/DTD/svg11.dtd"><svg xmlns="http://www.w3.org/2000/svg"><symbol id="icon-discuss-issue" viewBox="0 0 363 363"><path d="M277.73 94.123c0 10.997-8.006 17.685-13.852 22.593-2.214 1.859-6.335 5.251-6.324 6.518.04 4.97-3.956 8.939-8.927 8.939h-.075c-4.936 0-8.958-3.847-8.998-8.792-.079-9.747 7.034-15.584 12.75-20.383 4.485-3.766 7.426-6.416 7.426-8.841 0-4.909-3.994-8.903-8.903-8.903-4.911 0-8.906 3.994-8.906 8.903 0 4.971-4.029 9-9 9s-9-4.029-9-9c0-14.834 12.069-26.903 26.904-26.903 14.836-.001 26.905 12.034 26.905 26.869zm-28.929 46.358c-4.971 0-8.801 4.029-8.801 9v.069c0 4.971 3.831 8.966 8.801 8.966s9-4.064 9-9.035-4.029-9-9-9zM67.392 203.174c-4.971 0-9 4.029-9 9s4.029 9 9 9h.75c4.971 0 9-4.029 9-9s-4.029-9-9-9h-.75zm31.279 0c-4.971 0-9 4.029-9 9s4.029 9 9 9h.749c4.971 0 9-4.029 9-9s-4.029-9-9-9h-.749zM363 59.425v101.301c0 23.985-19.232 43.448-43.217 43.448H203.066c-2.282 0-4.161-.013-5.733-.046-1.647-.034-3.501-.047-4.224.033-.753.5-2.599 2.191-4.378 3.83-.705.649-1.503 1.363-2.364 2.149l-33.022 30.098c-2.634 2.403-6.531 3.025-9.793 1.587-3.262-1.439-5.552-4.669-5.552-8.234v-95.417H43.72c-14.062 0-25.72 11.523-25.72 25.583v101.301c0 14.061 11.659 25.116 25.72 25.116h130.374c2.245 0 4.345 1.031 6.003 2.545L207 317.523v-85.539c0-4.971 4.029-9 9-9s9 4.029 9 9v105.938c0 3.565-2.04 6.747-5.303 8.186-1.167.515-2.339.718-3.566.718-2.204 0-4.378-.905-6.069-2.449l-39.457-36.204H43.72c-23.986 0-43.72-19.13-43.72-43.116v-101.3c0-23.985 19.734-43.583 43.72-43.583H138V59.425c0-23.986 19.885-43.251 43.871-43.251h137.913c23.984 0 43.216 19.265 43.216 43.251zm-18 0c0-14.061-11.157-25.251-25.217-25.251H181.871C167.81 34.174 156 45.364 156 59.425v153.767l18.095-16.353c.838-.765 1.777-1.465 2.462-2.097 8.263-7.614 10.377-8.831 21.155-8.609 1.47.031 3.221.042 5.354.042h116.717c14.06 0 25.217-11.388 25.217-25.448V59.425z"/></symbol><symbol id="icon-email" viewBox="0 0 511.974 511.974"><path d="M511.872 195.725a8.065 8.065 0 0 0-.35-1.732 8.533 8.533 0 0 0-.486-1.468 7.655 7.655 0 0 0-.853-1.306 8.046 8.046 0 0 0-1.135-1.323c-.137-.119-.196-.282-.341-.401l-82.065-63.735V59.704c0-14.138-11.462-25.6-25.6-25.6h-92.476L271.539 5.355a25.302 25.302 0 0 0-31.121 0l-37.035 28.749h-92.476c-14.138 0-25.6 11.461-25.6 25.6v66.057L3.268 189.496c-.145.12-.205.282-.341.401a8.005 8.005 0 0 0-1.135 1.323 7.616 7.616 0 0 0-.853 1.306 8.42 8.42 0 0 0-.486 1.468 8.087 8.087 0 0 0-.35 1.707c0 .179-.102.333-.102.512V486.37a25.313 25.313 0 0 0 5.009 15.061c.051.077.06.171.119.239.06.068.188.145.273.239a25.475 25.475 0 0 0 20.173 10.061h460.8a25.482 25.482 0 0 0 20.241-10.103c.068-.085.171-.111.23-.196.06-.085.068-.162.12-.239a25.317 25.317 0 0 0 5.009-15.061V196.237c-.001-.179-.094-.333-.103-.512zM250.854 18.82a8.182 8.182 0 0 1 10.18 0l19.686 15.283h-49.493l19.627-15.283zM27.725 494.904l223.13-173.321a8.193 8.193 0 0 1 10.18 0l223.189 173.321H27.725zM494.908 481.6L271.539 308.117a25.319 25.319 0 0 0-31.121 0L17.041 481.6V209.233L156.877 317.82a8.536 8.536 0 0 0 11.977-1.515 8.536 8.536 0 0 0-1.515-11.977L25.276 194.018l60.032-46.652v65.937a8.533 8.533 0 0 0 17.066 0v-153.6a8.533 8.533 0 0 1 8.533-8.533H401.04a8.533 8.533 0 0 1 8.533 8.533v153.6a8.533 8.533 0 0 0 17.066 0v-65.937l60.032 46.652-142.31 110.507a8.533 8.533 0 1 0 10.462 13.482l140.083-108.774V481.6z"/><path d="M358.374 204.77v-34.133c0-56.554-45.846-102.4-102.4-102.4-56.554 0-102.4 45.846-102.4 102.4s45.846 102.4 102.4 102.4c4.713 0 8.533-3.82 8.533-8.533s-3.82-8.533-8.533-8.533c-47.128 0-85.333-38.205-85.333-85.333s38.205-85.333 85.333-85.333 85.333 38.205 85.333 85.333v34.133c0 9.426-7.641 17.067-17.067 17.067s-17.067-7.641-17.067-17.067v-34.133c0-4.713-3.82-8.533-8.533-8.533s-8.533 3.82-8.533 8.533c0 18.851-15.282 34.133-34.133 34.133-18.851 0-34.133-15.282-34.133-34.133s15.282-34.133 34.133-34.133c4.713 0 8.533-3.82 8.533-8.533s-3.82-8.533-8.533-8.533c-22.915-.051-43.074 15.13-49.354 37.168-6.28 22.038 2.847 45.565 22.347 57.601 19.5 12.036 44.622 9.65 61.507-5.843 1.858 18.046 17.543 31.464 35.659 30.505 18.117-.96 32.298-15.958 32.241-34.1z"/></symbol><symbol id="icon-facebook-2" viewBox="0 0 512 512"><path d="M297.277 508.668zm0 0M302.398 507.793c-1.02.187-2.039.36-3.058.535 1.02-.176 2.039-.348 3.058-.535zm0 0M285.137 510.34zm0 0M290.055 509.738zm0 0M309.367 506.41zm0 0M326.664 502.113c-.726.207-1.453.403-2.18.606.727-.203 1.454-.399 2.18-.606zm0 0M321.434 503.543c-.79.207-1.582.418-2.375.617.793-.2 1.586-.406 2.375-.617zm0 0M314.59 505.254c-.836.195-1.68.379-2.524.566.844-.187 1.688-.37 2.524-.566zm0 0M277.527 511.09zm0 0M512 256C512 114.637 397.363 0 256 0S0 114.637 0 256s114.637 256 256 256c1.504 0 3-.031 4.5-.059V312.656h-55V248.56h55V201.39c0-54.703 33.395-84.477 82.191-84.477 23.368 0 43.454 1.742 49.309 2.52v57.171h-33.648c-26.547 0-31.688 12.618-31.688 31.13v40.824h63.477l-8.274 64.097h-55.203V502.11C433.668 471.434 512 372.852 512 256zm0 0M272.914 511.43zm0 0M264.754 511.836zm0 0"/></symbol><symbol id="icon-facebook" viewBox="0 0 23.101 23.101"><path d="M8.258 4.458c0-.144.02-.455.06-.931.043-.477.223-.976.546-1.5.32-.522.839-.991 1.561-1.406C11.144.208 12.183 0 13.539 0h3.82v4.163h-2.797c-.277 0-.535.104-.768.309-.231.205-.35.4-.35.581v2.59h3.914c-.041.507-.086 1-.138 1.476l-.155 1.258c-.062.425-.125.819-.187 1.182h-3.462v11.542H8.258V11.558H5.742V7.643h2.516V4.458z"/></symbol><symbol id="icon-fb" viewBox="0 0 112.196 112.196"><circle cx="56.098" cy="56.098" r="56.098"/><path d="M70.201 58.294h-10.01v36.672H45.025V58.294h-7.213V45.406h7.213v-8.34c0-5.964 2.833-15.303 15.301-15.303l11.234.047v12.51h-8.151c-1.337 0-3.217.668-3.217 3.513v7.585h11.334l-1.325 12.876z"/></symbol><symbol id="icon-mail" viewBox="0 0 299.997 299.997"><path d="M149.996 0C67.157 0 .001 67.158.001 149.997c0 82.837 67.156 150 149.995 150s150-67.163 150-150C299.996 67.158 232.835 0 149.996 0zm-4.702 100.159h111.864c.763 0 1.502.091 2.225.223l-62.648 36.017-52.964-36.087c.504-.062.999-.153 1.523-.153zM60.572 185.31v-15.558h49.921l-.609 5.047-.112.931v.936c0 3.019.501 5.921 1.398 8.644H60.572zm51.721-30.468h-68.58V139.28h70.465l-1.885 15.562zm5.278-43.624l-.965 7.965H28.585v-15.562h90.384a27.58 27.58 0 0 0-1.398 7.597zm131.804 77.634H137.513a12.135 12.135 0 0 1-8.58-3.538v-.003a12.375 12.375 0 0 1-1.46-1.758c-.01-.016-.029-.031-.039-.047a12.393 12.393 0 0 1-1.032-1.891c-.029-.065-.073-.122-.104-.189-.265-.622-.451-1.284-.609-1.956-.029-.117-.083-.223-.106-.34a12.302 12.302 0 0 1-.249-2.464l4.145-34.259.379-3.13 3.258-26.94c0-.77.093-1.515.231-2.243.016-.078.008-.163.026-.241.01.005.018.013.029.021a12.24 12.24 0 0 1 1.958-4.547v5.88l57.741 39.132c.078.054.163.083.244.13.083.052.169.093.257.14.456.233.923.42 1.401.545.052.013.099.021.15.031.524.124 1.056.2 1.582.2h.015c.527 0 1.058-.075 1.582-.2.052-.01.099-.018.15-.031a6.882 6.882 0 0 0 1.401-.545c.086-.047.171-.088.257-.14.08-.047.163-.075.244-.13l68.792-39.716c.08.565.171 1.128.171 1.717l-7.781 64.329c-.007 6.731-5.461 12.183-12.191 12.183z"/></symbol><symbol id="icon-manual" viewBox="0 0 496 496"><path d="M248 80c13.23 0 24-10.77 24-24s-10.77-24-24-24-24 10.77-24 24 10.77 24 24 24zm0-32c4.406 0 8 3.586 8 8s-3.594 8-8 8-8-3.586-8-8 3.594-8 8-8zm0 0M288 192h-16V96h-64v48h16v48h-16v48h80zm-16 32h-48v-16h16v-80h-16v-16h32v96h16zm0 0"/><path d="M464 112V96h-86.023C360.855 40.473 309.07 0 248 0S135.145 40.473 118.023 96H32v16H0v352h208.809c3.71 18.23 19.879 32 39.191 32s35.48-13.77 39.191-32H496V112zM248 16c66.168 0 120 53.832 120 120 0 56.992-40.504 106.465-96.313 117.64l-3.832.766L248 294.113l-19.848-39.707-3.832-.765C168.504 242.465 128 192.992 128 136c0-66.168 53.832-120 120-120zm40 249.922c8.36-2.57 16.367-5.883 23.91-9.922H416v96H288zM48 112h66.246c-1.39 7.809-2.246 15.8-2.246 24 0 63.266 44.047 118.36 105.305 132.496L248 329.886l24-48.007V368h160V240h-96.633C365.273 214.785 384 177.168 384 136c0-8.2-.855-16.191-2.246-24H448v304H256v-72h-16v72H48zm432 336H272v8c0 13.23-10.77 24-24 24s-24-10.77-24-24v-8H16V128h16v304h432V128h16zm0 0"/><path d="M64 384h160v16H64zm0 0M64 352h160v16H64zm0 0M64 320h160v16H64zm0 0M64 288h144v16H64zm0 0M272 384h160v16H272zm0 0"/></symbol><symbol id="icon-smartphone" viewBox="0 0 300 300"><circle cx="150.001" cy="226.085" r="11.718"/><path d="M182.691 68.248h-65.382c-3.665 0-6.647 2.843-6.647 6.331v123.592c0 3.491 2.98 6.331 6.647 6.331h65.382c3.665 0 6.647-2.843 6.647-6.331V74.579c-.002-3.491-2.982-6.331-6.647-6.331z"/><path d="M149.996 0C67.157 0 .001 67.161.001 149.997S67.157 300 149.996 300s150.003-67.163 150.003-150.003S232.835 0 149.996 0zm58.358 224.021c0 11.458-9.29 20.749-20.749 20.749h-75.214c-11.458 0-20.749-9.29-20.749-20.749V75.323c0-11.458 9.29-20.749 20.749-20.749h75.214c11.458 0 20.749 9.29 20.749 20.749v148.698z"/></symbol><symbol id="icon-vibrate" viewBox="0 0 469.333 469.333"><path d="M146.073 404.313c-17.646-8.823-33.51-20.219-47.167-33.885-13.667-13.656-25.063-29.521-33.885-47.167-2.635-5.281-9.052-7.406-14.312-4.771-5.271 2.635-7.406 9.042-4.771 14.313 9.854 19.698 22.594 37.427 37.885 52.708 15.281 15.292 33.01 28.031 52.708 37.885a10.667 10.667 0 0 0 14.312-4.771c2.636-5.271.501-11.677-4.77-14.312zM127 442.448c-21.781-10.885-41.385-24.969-58.271-41.844-16.875-16.885-30.958-36.49-41.844-58.271-2.646-5.26-9.063-7.406-14.313-4.771-5.271 2.635-7.406 9.042-4.771 14.313 11.917 23.833 27.344 45.302 45.844 63.813 18.51 18.5 39.979 33.927 63.812 45.844a10.667 10.667 0 0 0 14.312-4.771c2.637-5.271.502-11.678-4.769-14.313zM342.333 26.885c21.781 10.885 41.385 24.969 58.271 41.844 16.875 16.885 30.958 36.49 41.844 58.271a10.667 10.667 0 0 0 14.312 4.771c5.271-2.635 7.406-9.042 4.771-14.313-11.917-23.833-27.344-45.302-45.844-63.812-18.51-18.5-39.979-33.927-63.813-45.844-5.271-2.615-11.677-.5-14.313 4.771-2.634 5.271-.498 11.677 4.772 14.312zM323.26 65.021c17.646 8.823 33.51 20.219 47.167 33.885 13.667 13.656 25.063 29.521 33.885 47.167a10.667 10.667 0 0 0 14.312 4.771c5.271-2.635 7.406-9.042 4.771-14.313-9.854-19.698-22.594-37.427-37.885-52.708-15.281-15.292-33.01-28.031-52.708-37.885-5.271-2.604-11.677-.5-14.313 4.771-2.635 5.27-.499 11.676 4.771 14.312zM459.958 275.913L193.312 9.1c-12.042-12.102-33.167-12.154-45.271-.031L9.375 147.828C3.333 153.873 0 161.92 0 170.468s3.333 16.594 9.375 22.64l266.646 266.813c6.031 6.067 14.073 9.413 22.646 9.413 8.542 0 16.583-3.336 22.625-9.381l138.667-138.759c6.042-6.046 9.375-14.093 9.375-22.64s-3.334-16.595-9.376-22.641zm-79.083 83.629l-21.333 21.333A10.636 10.636 0 0 1 352 384a10.636 10.636 0 0 1-7.542-3.125c-4.167-4.167-4.167-10.917 0-15.083l21.333-21.333c4.167-4.167 10.917-4.167 15.083 0 4.168 4.166 4.168 10.916.001 15.083zm-108.87 36.036L47.083 170.667 170.667 47.094 395.583 272 272.005 395.578z"/><path d="M131.125 109.792l-21.333 21.333c-4.167 4.167-4.167 10.917 0 15.083a10.634 10.634 0 0 0 7.542 3.125c2.729 0 5.458-1.042 7.542-3.125l21.333-21.333c4.167-4.167 4.167-10.917 0-15.083-4.167-4.167-10.917-4.167-15.084 0z"/><circle cx="170.667" cy="74.667" r="10.667"/></symbol><symbol id="icon-video-camera" viewBox="0 0 512.001 512.001"><path d="M481.086 188.037a11.432 11.432 0 0 0-11.278-.253l-73.901 39.777v-34.087c0-6.312-5.118-11.429-11.428-11.429h-18.586c23.179-18.799 38.024-47.493 38.024-79.594C403.918 45.96 357.958 0 301.465 0c-48.218 0-88.757 33.487-99.598 78.424-14.182-17.112-35.587-28.032-59.497-28.032-42.6 0-77.256 34.657-77.256 77.256 0 21.199 8.586 40.426 22.459 54.4H77.138c-6.312 0-11.429 5.117-11.429 11.429v51.879H36.776c-6.312 0-11.429 5.117-11.429 11.429v44.944c0 6.312 5.117 11.429 11.429 11.429h28.932v51.879c0 6.312 5.117 11.429 11.429 11.429h134.825l-61.946 118.825c-2.918 5.596-.746 12.499 4.851 15.417a11.378 11.378 0 0 0 5.273 1.297c4.123 0 8.105-2.239 10.143-6.147l60.523-116.098 60.524 116.098a11.426 11.426 0 0 0 15.417 4.85c5.597-2.918 7.769-9.821 4.85-15.417l-61.946-118.825h134.827c6.311 0 11.429-5.117 11.429-11.429v-34.088l73.901 39.777a11.424 11.424 0 0 0 11.278-.252 11.426 11.426 0 0 0 5.567-9.811V197.848c0-4.023-2.113-7.748-5.567-9.811zM65.709 290.297H48.205V268.21h17.504v22.087zm235.756-267.44c43.888 0 79.595 35.706 79.595 79.595 0 43.889-35.706 79.594-79.595 79.594-43.888 0-79.594-35.706-79.594-79.594.001-43.888 35.707-79.595 79.594-79.595zm-87.273 133.197a103.219 103.219 0 0 0 22.847 25.992h-39.872a77.502 77.502 0 0 0 17.025-25.992zM142.37 73.248c29.995 0 54.399 24.403 54.399 54.399 0 29.996-24.403 54.4-54.399 54.4-29.995 0-54.399-24.403-54.399-54.4.001-29.996 24.404-54.399 54.399-54.399zm230.68 173.443V353.604H88.566V204.902H373.05v41.789zm90.746 94.838l-67.889-36.542v-51.468l67.889-36.542v124.552z"/><path d="M142.37 92.931c-19.143 0-34.716 15.574-34.716 34.716 0 19.143 15.574 34.716 34.716 34.716 19.143 0 34.716-15.574 34.716-34.716.001-19.142-15.573-34.716-34.716-34.716zm0 48.86c-7.8 0-14.145-6.345-14.145-14.145s6.345-14.145 14.145-14.145 14.145 6.345 14.145 14.145-6.346 14.145-14.145 14.145zM301.465 52.595c-27.491 0-49.856 22.366-49.856 49.857 0 27.49 22.365 49.856 49.856 49.856 27.491 0 49.856-22.366 49.856-49.856 0-27.491-22.364-49.857-49.856-49.857zm0 76.856c-14.887 0-26.999-12.112-26.999-26.999 0-14.887 12.112-27 26.999-27s26.999 12.112 26.999 27-12.112 26.999-26.999 26.999zM264.593 238.137h-124.26c-5.997 0-10.857 4.861-10.857 10.857v60.519c0 5.997 4.861 10.857 10.857 10.857h124.26c5.997 0 10.857-4.861 10.857-10.857v-60.519c0-5.995-4.861-10.857-10.857-10.857zm-10.858 60.519H151.19v-38.804h102.546v38.804z"/><circle cx="324.536" cy="260.422" r="11.429"/><circle cx="324.536" cy="298.079" r="11.429"/></symbol><symbol id="icon-wallet" viewBox="0 0 1000 1000"><path d="M500 10C229.4 10 10 229.4 10 500s219.4 490 490 490 490-219.4 490-490S770.6 10 500 10zm323.6 574.5c0 20.3-16.5 36.8-36.8 36.8h-4.1v104.1c0 20.3-16.5 36.8-36.8 36.8H247.8c-8.8 0-16.8-3.3-23.1-8.4-.5 0-.9.3-1.4.3-3.1 0-6.2-1.2-8.6-3.5-87.4-86-87.4-99.5-87.4-104.6V256c0-20.3 16.5-36.8 36.8-36.8h498.2c20.3 0 36.8 16.5 36.8 36.8v42.8h47c20.3 0 36.8 16.5 36.8 36.8V454h4.1c20.3 0 36.8 16.5 36.8 36.8v93.7z"/><path d="M786.8 478.4h-100c-32.6 0-59.2 26.5-59.2 59.2 0 32.6 26.6 59.2 59.2 59.2h100c6.8 0 12.3-5.5 12.3-12.3v-93.9c0-6.7-5.5-12.2-12.3-12.2zm-100 100c-22.5 0-40.8-18.3-40.8-40.8s18.3-40.8 40.8-40.8c22.5 0 40.8 18.3 40.8 40.8 0 22.5-18.3 40.8-40.8 40.8z"/><path d="M686.8 521.2c9 0 16.3 7.3 16.3 16.3s-7.3 16.3-16.3 16.3-16.3-7.3-16.3-16.3 7.3-16.3 16.3-16.3z"/><path d="M603.1 537.6c0-46.2 37.5-83.7 83.7-83.7h71.5V335.4c0-6.7-5.5-12.3-12.3-12.3H247.8c-6.8 0-12.3 5.5-12.3 12.3v389.9c0 6.8 5.5 12.3 12.3 12.3H746c6.8 0 12.3-5.5 12.3-12.3v-104h-71.5c-46.2 0-83.7-37.6-83.7-83.7zm114.3-187.9c0-6.8 5.5-12.3 12.3-12.3s12.3 5.5 12.3 12.3v71.5c0 6.8-5.5 12.3-12.3 12.3s-12.3-5.5-12.3-12.3v-71.5z"/><path d="M674.6 298.7v-42.8c0-6.7-5.5-12.3-12.3-12.3H164.1c-6.8 0-12.3 5.5-12.3 12.3v388.6c4 8.8 30.6 38.4 59.2 67.6V335.4c0-20.3 16.5-36.8 36.8-36.8h426.8z"/></symbol></svg>